<?xml version="1.0" encoding="UTF-8" standalone="no"?>
<!-- Created with Inkscape (http://www.inkscape.org/) -->

<svg
   xmlns:dc="http://purl.org/dc/elements/1.1/"
   xmlns:cc="http://creativecommons.org/ns#"
   xmlns:rdf="http://www.w3.org/1999/02/22-rdf-syntax-ns#"
   xmlns:svg="http://www.w3.org/2000/svg"
   xmlns="http://www.w3.org/2000/svg"
   xmlns:sodipodi="http://sodipodi.sourceforge.net/DTD/sodipodi-0.dtd"
   xmlns:inkscape="http://www.inkscape.org/namespaces/inkscape"
   width="59.785213mm"
   height="12.913152mm"
   viewBox="0 0 59.785213 12.913152"
   version="1.1"
   id="svg8"
   inkscape:version="0.92.5 (2060ec1f9f, 2020-04-08)"
   sodipodi:docname="logo2020_white_orange.svg">
  <defs
     id="defs2">
    <style
       id="current-color-scheme"
       type="text/css">
      .ColorScheme-Text {
        color:#4d4d4d;
      }
      </style>
  </defs>
  <sodipodi:namedview
     id="base"
     pagecolor="#b4b4b4"
     bordercolor="#666666"
     borderopacity="1.0"
     inkscape:pageopacity="1"
     inkscape:pageshadow="2"
     inkscape:zoom="1.4"
     inkscape:cx="36.572431"
     inkscape:cy="93.324841"
     inkscape:document-units="mm"
     inkscape:current-layer="text3715-3"
     showgrid="false"
     inkscape:window-width="1920"
     inkscape:window-height="1151"
     inkscape:window-x="0"
     inkscape:window-y="28"
     inkscape:window-maximized="1"
     inkscape:pagecheckerboard="false"
     fit-margin-top="0"
     fit-margin-left="0"
     fit-margin-right="0"
     fit-margin-bottom="0" />
  <metadata
     id="metadata5">
    <rdf:RDF>
      <cc:Work
         rdf:about="">
        <dc:format>image/svg+xml</dc:format>
        <dc:type
           rdf:resource="http://purl.org/dc/dcmitype/StillImage" />
        <dc:title />
      </cc:Work>
    </rdf:RDF>
  </metadata>
  <g
     inkscape:label="Layer 1"
     inkscape:groupmode="layer"
     id="layer1"
     transform="translate(-19.244298,-105.97024)">
    <g
       aria-label="r  penGov"
       style="font-style:normal;font-variant:normal;font-weight:normal;font-stretch:normal;font-size:10.58333302px;line-height:1.25;font-family:'B612 Mono';-inkscape-font-specification:'B612 Mono, Normal';font-variant-ligatures:normal;font-variant-caps:normal;font-variant-numeric:normal;font-feature-settings:normal;text-align:start;letter-spacing:0px;word-spacing:0px;writing-mode:lr-tb;text-anchor:start;fill:#ffffff;fill-opacity:1;stroke:none;stroke-width:0.26458332"
       id="text3715-3">
      <path
         d="m 20.196798,111.50151 0.481541,-0.83608 q 0.148167,-0.11112 0.338667,-0.17992 0.1905,-0.0688 0.391583,-0.10054 0.201084,-0.037 0.402167,-0.0476 0.206375,-0.0106 0.391583,-0.0106 0.396875,0 0.677334,0.0371 0.280458,0.0318 0.470958,0.0847 0.195792,0.0529 0.312208,0.11113 0.116417,0.0529 0.179917,0.0952 l 0.264583,1.50812 -0.79375,0.10584 -0.264583,-0.94192 q -0.04233,-0.0159 -0.132292,-0.0318 -0.08996,-0.0159 -0.206375,-0.0318 -0.116416,-0.0159 -0.248708,-0.0265 -0.127,-0.0106 -0.243417,-0.0106 -0.359833,0 -0.66675,0.0847 -0.306916,0.0794 -0.560916,0.22225 -0.254,0.14288 -0.455084,0.33338 -0.195791,0.1905 -0.338666,0.40217 v 3.96875 h -0.9525 v -5.82084 l 0.9525,-0.10583 z"
         style="font-style:normal;font-variant:normal;font-weight:normal;font-stretch:normal;font-size:10.58333302px;font-family:'B612 Mono';-inkscape-font-specification:'B612 Mono, Normal';font-variant-ligatures:normal;font-variant-caps:normal;font-variant-numeric:normal;font-feature-settings:normal;text-align:start;writing-mode:lr-tb;text-anchor:start;fill:#ffffff;stroke-width:0.26458332"
         id="path819" />
      <path
         d="m 40.828993,115.39089 h 0.867834 q 0.486833,0 0.883708,-0.15875 0.396875,-0.16404 0.677333,-0.45508 0.280459,-0.29105 0.433917,-0.6985 0.153458,-0.40746 0.153458,-0.89959 0,-0.51858 -0.142875,-0.89429 -0.142875,-0.381 -0.365125,-0.62442 -0.22225,-0.2487 -0.497416,-0.36512 -0.269875,-0.12171 -0.529167,-0.12171 -0.259292,0 -0.486833,0.0688 -0.22225,0.0635 -0.41275,0.16404 -0.185209,0.10055 -0.333375,0.22225 -0.148167,0.12171 -0.248709,0.23284 z m -0.9525,3.4925 v -8.46667 l 0.9525,-0.10583 v 0.93133 l 0.502709,-0.67204 q 0.153458,-0.09 0.433916,-0.16404 0.28575,-0.0794 0.6985,-0.0794 0.439209,0 0.867834,0.20638 0.428625,0.20637 0.762,0.58737 0.338666,0.381 0.545041,0.92075 0.211667,0.53975 0.211667,1.2065 0,0.65088 -0.254,1.20121 -0.248708,0.54504 -0.693208,0.94721 -0.439209,0.39688 -1.031875,0.61913 -0.592667,0.22225 -1.275292,0.22225 h -0.767292 v 2.64583 z"
         style="font-style:normal;font-variant:normal;font-weight:normal;font-stretch:normal;font-size:10.58333302px;font-family:'B612 Mono';-inkscape-font-specification:'B612 Mono, Normal';font-variant-ligatures:normal;font-variant-caps:normal;font-variant-numeric:normal;font-feature-settings:normal;text-align:start;writing-mode:lr-tb;text-anchor:start;fill:#ffffff;stroke-width:0.26458332"
         id="path821" />
      <path
         d="m 51.115989,115.55493 q -0.164042,0.16933 -0.359834,0.31221 -0.195791,0.14287 -0.433916,0.24871 -0.238125,0.10054 -0.529167,0.15346 -0.28575,0.0582 -0.640292,0.0582 -0.703791,0 -1.217083,-0.2487 -0.513292,-0.24871 -0.846667,-0.66675 -0.333375,-0.41805 -0.492125,-0.9578 -0.15875,-0.53975 -0.15875,-1.12712 0,-0.37571 0.07408,-0.74083 0.07937,-0.37042 0.22225,-0.7038 0.148166,-0.33337 0.365125,-0.61912 0.22225,-0.28575 0.508,-0.49213 0.291041,-0.20637 0.640291,-0.32279 0.354542,-0.12171 0.772584,-0.12171 0.5715,0 1.031875,0.18521 0.460375,0.18521 0.783166,0.51859 0.322792,0.33337 0.497417,0.80433 0.174625,0.46567 0.174625,1.02658 0,0.16404 -0.01058,0.35984 -0.01058,0.19579 -0.03175,0.37041 h -4.021667 q 0,0.40746 0.127,0.75671 0.127,0.34396 0.343958,0.59796 0.22225,0.24871 0.518584,0.39158 0.301625,0.14288 0.650875,0.14288 0.338666,0 0.576791,-0.0476 0.243417,-0.0529 0.407459,-0.127 0.169333,-0.0741 0.280458,-0.15875 0.111125,-0.0847 0.1905,-0.15875 z m -0.53975,-2.75696 v -0.23283 q 0,-0.30163 -0.121709,-0.55563 -0.116416,-0.254 -0.322791,-0.4392 -0.201084,-0.1905 -0.470959,-0.29634 -0.264583,-0.10583 -0.560916,-0.10583 -0.354542,0 -0.624417,0.11642 -0.264583,0.11112 -0.455083,0.29104 -0.1905,0.17462 -0.306917,0.38629 -0.116417,0.21167 -0.169333,0.40217 l -0.312209,0.60325 0.978959,-0.16934 z"
         style="font-style:normal;font-variant:normal;font-weight:normal;font-stretch:normal;font-size:10.58333302px;font-family:'B612 Mono';-inkscape-font-specification:'B612 Mono, Normal';font-variant-ligatures:normal;font-variant-caps:normal;font-variant-numeric:normal;font-feature-settings:normal;text-align:start;writing-mode:lr-tb;text-anchor:start;fill:#ffffff;stroke-width:0.26458332"
         id="path823" />
      <path
         d="m 54.592611,116.23756 h -0.9525 v -5.82084 l 0.9525,-0.10583 v 1.02129 l 0.322791,-0.61912 q 0.09525,-0.0635 0.22225,-0.1323 0.132292,-0.0688 0.3175,-0.1217 0.185209,-0.0582 0.439209,-0.0952 0.254,-0.0371 0.597958,-0.0371 0.418042,0 0.751417,0.13759 0.338666,0.13229 0.566208,0.38629 0.232833,0.254 0.354542,0.61383 0.127,0.35984 0.127,0.80434 v 3.96875 h -0.9525 v -3.96875 q 0,-0.28575 -0.09525,-0.49213 -0.08996,-0.20637 -0.254,-0.33867 -0.164042,-0.13758 -0.381,-0.20108 -0.216959,-0.0635 -0.460375,-0.0635 -0.254,0 -0.492125,0.0635 -0.232834,0.0635 -0.433917,0.16404 -0.201083,0.0952 -0.365125,0.21167 -0.15875,0.11112 -0.264583,0.21167 z"
         style="font-style:normal;font-variant:normal;font-weight:normal;font-stretch:normal;font-size:10.58333302px;font-family:'B612 Mono';-inkscape-font-specification:'B612 Mono, Normal';font-variant-ligatures:normal;font-variant-caps:normal;font-variant-numeric:normal;font-feature-settings:normal;text-align:start;writing-mode:lr-tb;text-anchor:start;fill:#ffffff;stroke-width:0.26458332"
         id="path825" />
      <path
         d="m 65.699814,115.1951 q -0.216958,0.23812 -0.486833,0.44979 -0.269875,0.20637 -0.592667,0.35983 -0.322792,0.14817 -0.703792,0.23284 -0.381,0.09 -0.820208,0.09 -0.762,0 -1.3335,-0.32808 -0.566208,-0.33337 -0.941916,-0.89958 -0.370417,-0.56621 -0.555625,-1.32292 -0.185209,-0.75671 -0.185209,-1.61396 0,-0.53446 0.06879,-1.03187 0.07408,-0.50271 0.227542,-0.94192 0.153458,-0.43921 0.396875,-0.79904 0.248708,-0.36512 0.597958,-0.62442 0.34925,-0.26458 0.804333,-0.40745 0.460375,-0.14817 1.042458,-0.14817 0.608542,0 1.148292,0.19579 0.545042,0.1905 0.926042,0.55563 l -0.47625,0.5662 q -0.254,-0.16933 -0.635,-0.29633 -0.381,-0.127 -0.878417,-0.127 -0.428625,0 -0.751416,0.11113 -0.322792,0.11112 -0.560917,0.3122 -0.232833,0.20109 -0.386292,0.48154 -0.153458,0.27517 -0.248708,0.61384 -0.08996,0.33866 -0.127,0.72496 -0.03704,0.38629 -0.03704,0.79904 0,0.36512 0.03704,0.75141 0.04233,0.381 0.132292,0.74613 0.08996,0.36512 0.243416,0.68792 0.153459,0.32279 0.375709,0.5662 0.227541,0.24342 0.534458,0.3863 0.312208,0.14287 0.719666,0.14287 0.238125,0 0.470959,-0.0529 0.232833,-0.0529 0.439208,-0.13758 0.206375,-0.0847 0.365125,-0.18521 0.164042,-0.10583 0.259292,-0.20637 v -1.84679 l -1.661584,-0.10584 v -0.68791 h 2.592917 z"
         style="font-style:normal;font-variant:normal;font-weight:normal;font-stretch:normal;font-size:10.58333302px;font-family:'B612 Mono';-inkscape-font-specification:'B612 Mono, Normal';font-variant-ligatures:normal;font-variant-caps:normal;font-variant-numeric:normal;font-feature-settings:normal;text-align:start;writing-mode:lr-tb;text-anchor:start;fill:#ffffff;stroke-width:0.26458332"
         id="path827" />
      <path
         d="m 69.716184,116.32751 q -0.587375,0 -1.0795,-0.22754 -0.486833,-0.23283 -0.841375,-0.635 -0.354541,-0.40746 -0.555625,-0.95779 -0.195791,-0.55033 -0.195791,-1.19592 0,-0.64029 0.1905,-1.18533 0.1905,-0.55033 0.53975,-0.94721 0.34925,-0.40216 0.841375,-0.62441 0.497416,-0.22755 1.100666,-0.22755 0.587375,0 1.068917,0.22755 0.481542,0.22225 0.8255,0.62441 0.34925,0.39688 0.53975,0.94721 0.1905,0.54504 0.1905,1.18533 0,0.64559 -0.185208,1.19592 -0.179917,0.55033 -0.523875,0.95779 -0.338667,0.40217 -0.8255,0.635 -0.486834,0.22754 -1.090084,0.22754 z m 1.61925,-2.87337 q 0,-0.42863 -0.08996,-0.84138 -0.08996,-0.41275 -0.28575,-0.73554 -0.195792,-0.32808 -0.508,-0.52916 -0.312208,-0.20109 -0.756708,-0.20109 -0.423334,0 -0.735542,0.17463 -0.312208,0.17462 -0.513292,0.46566 -0.201083,0.29105 -0.301625,0.66146 -0.09525,0.37042 -0.09525,0.762 0,0.42863 0.09525,0.84138 0.100542,0.41275 0.301625,0.73554 0.206375,0.32279 0.523875,0.52387 0.322792,0.1958 0.767292,0.1958 0.418042,0 0.719667,-0.17463 0.306916,-0.17462 0.497416,-0.46037 0.195792,-0.29105 0.28575,-0.65617 0.09525,-0.37042 0.09525,-0.762 z"
         style="font-style:normal;font-variant:normal;font-weight:normal;font-stretch:normal;font-size:10.58333302px;font-family:'B612 Mono';-inkscape-font-specification:'B612 Mono, Normal';font-variant-ligatures:normal;font-variant-caps:normal;font-variant-numeric:normal;font-feature-settings:normal;text-align:start;writing-mode:lr-tb;text-anchor:start;fill:#ffffff;stroke-width:0.26458332"
         id="path829" />
      <path
         d="m 79.029513,110.31089 -1.963209,6.0325 -1.090083,-0.10583 -1.889125,-5.82084 0.968375,-0.10583 1.264709,3.91054 0.280458,1.22767 0.264583,-1.22767 1.23825,-3.80471 z"
         style="font-style:normal;font-variant:normal;font-weight:normal;font-stretch:normal;font-size:10.58333302px;font-family:'B612 Mono';-inkscape-font-specification:'B612 Mono, Normal';font-variant-ligatures:normal;font-variant-caps:normal;font-variant-numeric:normal;font-feature-settings:normal;text-align:start;writing-mode:lr-tb;text-anchor:start;fill:#ffffff;stroke-width:0.26458332"
         id="path831" />
    </g>
    <path
       id="path4699"
       class="ColorScheme-Text"
       d="m 31.778242,105.97088 a 6.1931469,6.1931521 0 0 0 -4.469469,1.81438 6.1931469,6.1931521 0 0 0 0,8.75749 6.1931469,6.1931521 0 0 0 8.757494,0 6.1931469,6.1931521 0 0 0 0,-8.75749 6.1931469,6.1931521 0 0 0 -4.288025,-1.81438 z m -0.169351,0.77413 a 5.4190015,5.4190015 0 0 1 3.622747,1.32754 l -1.087125,1.08712 a 6.1931448,3.8707156 45 0 0 -4.198821,-2.12286 5.4190015,5.4190015 0 0 1 1.663199,-0.29171 z m -2.343598,1.01152 a 5.4190015,3.0965723 45 0 1 4.330363,1.95201 l -1.90814,1.90812 -3.522956,-3.52295 a 5.4190015,3.0965723 45 0 1 1.100733,-0.33718 z m 6.518224,0.85883 a 5.4190015,5.4190015 0 0 1 1.034208,5.27232 6.1931448,3.8707156 45 0 0 -2.128893,-4.17765 z m -8.167814,0.0234 3.524469,3.52445 -1.909656,1.90967 a 5.4190015,3.0965723 45 0 1 -1.614813,-5.43412 z m 6.52881,1.6148 a 5.4190015,3.0965723 45 0 1 1.614813,5.43412 l -3.524469,-3.52447 z m -7.587209,0.18609 a 6.1931448,3.8707156 45 0 0 2.128893,4.17765 l -1.094686,1.0947 a 5.4190015,5.4190015 0 0 1 -1.034207,-5.27235 z m 5.130212,2.27102 3.522953,3.52295 a 5.4190015,3.0965723 45 0 1 -5.431096,-1.6148 z m -2.457,2.45699 a 6.1931448,3.8707156 45 0 0 4.19882,2.12286 5.4190015,5.4190015 0 0 1 -5.285945,-1.03571 z"
       style="color:#4d4d4d;fill:#ff6600;fill-opacity:1;stroke:none;stroke-width:0.77414304"
       inkscape:connector-curvature="0" />
  </g>
</svg>
