<svg xmlns="http://www.w3.org/2000/svg" width="225.96" height="48.806" viewBox="0 0 59.785 12.913">
  <g aria-label="ropengov black" style="font-style:normal;font-variant:normal;font-weight:400;font-stretch:normal;font-size:10.58333302px;line-height:1.25;font-family:&quot;B612 Mono&quot;;-inkscape-font-specification:&quot;B612 Mono, Normal&quot;;font-variant-ligatures:normal;font-variant-caps:normal;font-variant-numeric:normal;font-feature-settings:normal;text-align:start;letter-spacing:0;word-spacing:0;writing-mode:lr-tb;text-anchor:start;fill:#000;fill-opacity:1;stroke:none;stroke-width:.26458332">
    <path d="m20.197 111.502.481-.837q.149-.11.339-.18.19-.068.392-.1.2-.037.402-.048.206-.01.391-.01.397 0 .678.037.28.032.47.085.196.052.313.11.116.054.18.096l.264 1.508-.793.106-.265-.942q-.042-.016-.132-.032t-.207-.032-.248-.026q-.127-.01-.244-.01-.36 0-.667.084-.306.08-.56.222t-.456.334q-.195.19-.338.402v3.968h-.953v-5.82l.953-.106zM40.829 115.39h.868q.487 0 .884-.158.396-.164.677-.455.28-.291.434-.698.153-.408.153-.9 0-.519-.143-.894-.143-.381-.365-.625-.222-.248-.497-.365-.27-.122-.53-.122-.259 0-.486.07-.222.063-.413.163-.185.1-.333.223-.148.121-.249.232zm-.953 3.493v-8.466l.953-.106v.931l.503-.672q.153-.09.434-.164.285-.08.698-.08.44 0 .868.207.429.206.762.587.339.381.545.921.212.54.212 1.207 0 .65-.254 1.2-.249.546-.694.948-.439.397-1.031.62-.593.222-1.276.222h-.767v2.645zM51.116 115.555q-.164.17-.36.312-.196.143-.434.249-.238.1-.529.153-.286.059-.64.059-.704 0-1.217-.25-.514-.248-.847-.666t-.492-.958-.159-1.127q0-.376.074-.74.08-.371.222-.704.149-.334.366-.62.222-.285.508-.492.29-.206.64-.323.354-.121.772-.121.572 0 1.032.185t.784.519q.322.333.497.804.175.466.175 1.026 0 .165-.011.36-.01.196-.032.37h-4.021q0 .408.127.757.127.344.344.598.222.25.518.392.302.143.651.143.339 0 .577-.048.243-.053.407-.127.17-.074.28-.158.112-.085.191-.16zm-.54-2.757v-.233q0-.301-.121-.555-.117-.254-.323-.44-.201-.19-.471-.296-.265-.106-.561-.106-.355 0-.625.117-.264.11-.455.29-.19.175-.307.387t-.169.402l-.312.603.979-.169zM54.593 116.238h-.953v-5.821l.953-.106v1.021l.322-.619q.096-.063.223-.132.132-.069.317-.122.185-.058.44-.095.253-.037.597-.037.418 0 .752.137.338.133.566.387.233.254.354.613.127.36.127.805v3.969h-.952v-3.97q0-.285-.095-.491-.09-.207-.254-.339-.164-.138-.381-.201-.217-.064-.46-.064-.255 0-.493.064-.233.063-.434.164-.2.095-.365.212-.159.11-.264.211zM65.7 115.195q-.217.238-.487.45-.27.206-.593.36-.322.148-.703.233-.381.09-.82.09-.763 0-1.334-.329-.566-.333-.942-.9-.37-.565-.556-1.322-.185-.757-.185-1.614 0-.534.069-1.032.074-.503.227-.942t.397-.799q.249-.365.598-.624.35-.265.805-.408.46-.148 1.042-.148.609 0 1.148.196.545.19.926.556l-.476.566q-.254-.17-.635-.297-.38-.127-.878-.127-.429 0-.752.112-.323.11-.56.312-.233.2-.387.481-.153.275-.249.614-.09.339-.127.725t-.037.8q0 .364.037.75.043.382.133.747t.243.688q.154.322.376.566.227.243.534.386.312.143.72.143.238 0 .47-.053.234-.053.44-.137t.365-.186q.164-.106.26-.206v-1.847l-1.662-.106v-.688H65.7zM69.716 116.328q-.587 0-1.08-.228-.486-.233-.84-.635-.355-.407-.556-.958-.196-.55-.196-1.196 0-.64.19-1.185.19-.55.54-.947.35-.402.842-.625.497-.227 1.1-.227.588 0 1.07.227.48.223.825.625.349.397.54.947.19.545.19 1.185 0 .646-.185 1.196-.18.55-.524.958-.339.402-.826.635-.487.228-1.09.228m1.62-2.874q0-.428-.09-.841t-.286-.736q-.196-.328-.508-.529t-.757-.201q-.423 0-.736.175-.312.174-.513.465-.2.291-.301.662-.096.37-.096.762 0 .428.096.841.1.413.301.736.207.322.524.524.323.195.767.195.418 0 .72-.174.307-.175.497-.46.196-.292.286-.657.095-.37.095-.762M79.03 110.31l-1.964 6.033-1.09-.105-1.889-5.821.968-.106 1.265 3.91.28 1.228.265-1.228 1.238-3.804z" style="font-style:normal;font-variant:normal;font-weight:400;font-stretch:normal;font-size:10.58333302px;font-family:&quot;B612 Mono&quot;;-inkscape-font-specification:&quot;B612 Mono, Normal&quot;;font-variant-ligatures:normal;font-variant-caps:normal;font-variant-numeric:normal;font-feature-settings:normal;text-align:start;writing-mode:lr-tb;text-anchor:start;fill:#000;stroke-width:.26458332" transform="translate(-19.244 -105.97)" />
  </g>
  <path d="M31.778 105.97a6.2 6.2 0 0 0-4.47 1.815 6.193 6.193 0 0 0 0 8.758 6.193 6.193 0 0 0 8.758 0 6.193 6.193 0 0 0 0-8.758 6.2 6.2 0 0 0-4.288-1.814m-.17.775a5.42 5.42 0 0 1 3.624 1.328l-1.087 1.087a6.193 3.87 45 0 0-4.2-2.123 5.4 5.4 0 0 1 1.664-.292m-2.343 1.012a5.419 3.097 45 0 1 4.33 1.952l-1.907 1.908-3.523-3.523a5.419 3.097 45 0 1 1.1-.337m6.519.858a5.42 5.42 0 0 1 1.034 5.273 6.193 3.87 45 0 0-2.13-4.178zm-8.168.024 3.524 3.524-1.91 1.91a5.419 3.097 45 0 1-1.614-5.434m6.529 1.615a5.419 3.097 45 0 1 1.614 5.434l-3.524-3.525zm-7.588.186a6.193 3.87 45 0 0 2.13 4.177l-1.095 1.095a5.42 5.42 0 0 1-1.035-5.272m5.13 2.27 3.523 3.524a5.419 3.097 45 0 1-5.43-1.615zm-2.456 2.458a6.193 3.87 45 0 0 4.198 2.123 5.42 5.42 0 0 1-5.286-1.036z" style="color:#4d4d4d;fill:#f60;fill-opacity:1;stroke:none;stroke-width:.77414304" transform="translate(-19.244 -105.97)" />
</svg>
